# xmcd CD database file
#
# Track frame offsets:
#	150
#	19402
#	30129
#	41810
#	54950
#	62923
#	75786
#	92739
#	108279
#	122488
#	142553
#	154485
#	177272
#	190175
#	209957
#	222412
#	235703
#	256388
#
# Disc length: 3602 seconds
#
# Revision: 0
# Processed by: cddbd v1.5.2PL0 Copyright (c) Steve Scherf et al.
# Submitted via: CDex 1.70beta2
#
DISCID=ef0e1012
DTITLE=Hudson Shad - Title: Spieldose
DYEAR=1900
DGENRE=Country
TTITLE0=Mackie Messer
TTITLE1=Die Forelle
TTITLE2=Nagasaki
TTITLE3=Whispering
TTITLE4=Heidenröslein
TTITLE5=Julia
TTITLE6=Economics
TTITLE7=Trockene Blumen
TTITLE8=Ali Baba
TTITLE9=Susan's Dream
TTITLE10=In einem kühlen Grunde
TTITLE11=It never was you
TTITLE12=Blumentopf
TTITLE13=Mondenschein
TTITLE14=Speak low
TTITLE15=Ich wollt' ich wär ein Huhn
TTITLE16=September Song
TTITLE17=Lebe wohl, gute Reise
EXTD=
EXTT0=
EXTT1=
EXTT2=
EXTT3=
EXTT4=
EXTT5=
EXTT6=
EXTT7=
EXTT8=
EXTT9=
EXTT10=
EXTT11=
EXTT12=
EXTT13=
EXTT14=
EXTT15=
EXTT16=
EXTT17=
PLAYORDER=
